<?xml version="1.0" encoding="utf-8"?>
<!-- Generator: Adobe Illustrator 28.0.0, SVG Export Plug-In . SVG Version: 6.00 Build 0)  -->
<svg version="1.1" id="Calque_1" xmlns="http://www.w3.org/2000/svg" xmlns:xlink="http://www.w3.org/1999/xlink" x="0px" y="0px"
	 viewBox="0 0 93.8 20" style="enable-background:new 0 0 93.8 20;" xml:space="preserve">
<style type="text/css">
	.st0{fill:none;stroke:#000000;stroke-width:2;stroke-linecap:round;stroke-linejoin:round;}
	.st1{fill-rule:evenodd;clip-rule:evenodd;stroke:#000000;stroke-width:0.25;stroke-miterlimit:10;}
	.st2{display:none;fill:none;stroke:#000000;stroke-width:1.5;stroke-linecap:round;stroke-linejoin:round;}
	.st3{display:none;}
	.st4{font-family:'Inter-Bold';}
	.st5{font-size:10.6348px;}
</style>
<path class="st0" d="M17,6.1l0.4,0.1c1.8,0.6,1.9,3.1,0.1,3.8l-5,1.8c-0.3,0.1-0.5,0.3-0.6,0.6l-1.9,5.3c-0.6,1.8-3.1,1.8-3.8,0
	l-5.1-14c-0.6-1.6,1-3.2,2.6-2.6l1.4,0.5"/>
<path class="st1" d="M11.6,1c-0.1-0.6-1-0.6-1.2,0L10,2.6C9.9,2.8,9.8,3,9.6,3.1L7.9,3.5c-0.6,0.1-0.6,1,0,1.2L9.6,5
	C9.8,5.1,9.9,5.2,10,5.5l0.4,1.7c0.1,0.6,1,0.6,1.2,0L12,5.5C12,5.2,12.2,5.1,12.4,5l1.7-0.4c0.6-0.1,0.6-1,0-1.2l-1.7-0.4
	C12.2,3,12,2.8,12,2.6L11.6,1z"/>
<path class="st2" d="M52,9.7l0.4,0.1c1.8,0.6,1.9,3.1,0.1,3.8l-5,1.8c-0.3,0.1-0.5,0.3-0.6,0.6L45,21.3c-0.6,1.8-3.1,1.8-3.8,0
	l-5.1-14c-0.6-1.6,1-3.2,2.6-2.6l1.4,0.5"/>
<path class="st3" d="M22.6,7c-2-0.5-2.5-1-3-3c-0.1-0.3-0.3-0.4-0.5-0.4c-0.3,0-0.5,0.2-0.5,0.4c-0.5,2-1,2.5-3,3
	c-0.3,0.1-0.4,0.3-0.4,0.5s0.2,0.5,0.4,0.5c2,0.5,2.5,1,3,3c0.1,0.3,0.3,0.4,0.5,0.4c0.3,0,0.5-0.2,0.5-0.4c0.5-2,1-2.5,3-3
	c0.3-0.1,0.4-0.3,0.4-0.5S22.9,7,22.6,7z"/>
<path class="st2" d="M25.4,9.7l0.4,0.1c1.8,0.6,1.9,3.1,0.1,3.8l-5,1.8c-0.3,0.1-0.5,0.3-0.6,0.6l-1.9,5.3c-0.6,1.8-3.1,1.8-3.8,0
	l-5.1-14c-0.6-1.6,1-3.2,2.6-2.6l1.4,0.5"/>
<g>
	<path d="M25.7,8.8l0.1,1.2c0.4-0.9,1.1-1.3,2.1-1.3c0.1,0,0.3,0,0.4,0c0.1,0,0.3,0.1,0.4,0.1l-0.2,2.1c-0.2-0.1-0.5-0.1-0.7-0.1
		c-1.3,0-1.9,0.9-1.9,2.1v3.9h-2.2v-8H25.7z"/>
	<path d="M33.1,8.5c2.5,0,4.3,1.8,4.3,4.2c0,2.4-1.8,4.3-4.4,4.3c-2.5,0-4.3-1.8-4.3-4.2C28.7,10.4,30.5,8.5,33.1,8.5z M30.9,12.8
		c0,1.2,0.8,2.3,2.1,2.3c1.3,0,2.1-1.1,2.1-2.3c0-1.2-0.8-2.3-2.1-2.3C31.7,10.5,30.9,11.6,30.9,12.8z"/>
	<path d="M37.9,12.8c0-2.2,1.5-4.3,3.9-4.3c1,0,2,0.4,2.6,1.3l0.1-1h2v8h-2l-0.1-1.2c-0.6,0.9-1.6,1.4-2.7,1.4
		C39.4,17,37.9,15,37.9,12.8z M42.3,15.1c1.3,0,2.1-1.1,2.1-2.3c0-1.2-0.8-2.3-2.1-2.3c-1.3,0-2.1,1.1-2.1,2.3
		C40.2,14,40.9,15.1,42.3,15.1z"/>
	<path d="M47.3,12.8c0-2.2,1.5-4.3,3.9-4.3c1,0,1.8,0.3,2.5,1.1V5.4h2.2v11.3h-2l-0.1-1.2c-0.6,0.9-1.6,1.4-2.7,1.4
		C48.8,17,47.3,15,47.3,12.8z M51.6,15.1c1.3,0,2.1-1.1,2.1-2.3c0-1.2-0.8-2.3-2.1-2.3c-1.3,0-2.1,1.1-2.1,2.3
		C49.5,14,50.3,15.1,51.6,15.1z"/>
	<path d="M59,8.8l0.1,1.2c0.6-0.9,1.6-1.4,2.7-1.4c2.4,0,3.8,2,3.8,4.2c0,2.2-1.5,4.3-3.9,4.3c-1,0-1.8-0.4-2.4-1.1v3.8H57v-11H59z
		 M59.2,12.8c0,1.2,0.8,2.3,2.1,2.3c1.3,0,2.1-1.1,2.1-2.3c0-1.2-0.8-2.3-2.1-2.3C60,10.5,59.2,11.6,59.2,12.8z"/>
	<path d="M68.4,8.8l0.1,1.2c0.4-0.9,1.1-1.3,2.1-1.3c0.1,0,0.3,0,0.4,0c0.1,0,0.3,0.1,0.4,0.1l-0.2,2.1c-0.2-0.1-0.5-0.1-0.7-0.1
		c-1.3,0-1.9,0.9-1.9,2.1v3.9h-2.2v-8H68.4z"/>
	<path d="M75.6,8.5c2.5,0,4,1.8,4,4.2v0.5h-5.9c0.2,1.1,0.8,1.9,2,1.9c0.8,0,1.4-0.4,1.8-1l2,0.6c-0.6,1.4-2.2,2.2-3.8,2.2
		c-2.5,0-4.2-1.8-4.2-4.3C71.4,10.5,73.1,8.5,75.6,8.5z M73.7,11.9h3.7c-0.1-0.9-0.7-1.7-1.8-1.7S73.9,10.9,73.7,11.9z"/>
	<path d="M81.9,14.4c0.2,0.7,0.8,1,1.5,1c0.5,0,1.2-0.2,1.2-0.9c0-0.6-0.8-0.8-1.3-0.9l-0.4-0.1c-1.4-0.2-2.7-0.9-2.7-2.4
		c0-1.7,1.6-2.6,3.2-2.6c1.5,0,2.9,0.7,3.3,2.2l-2,0.4c-0.2-0.6-0.7-1-1.3-1c-0.5,0-1.1,0.2-1.1,0.8c0,0.6,0.9,0.8,1.3,0.8l0.4,0.1
		c1.4,0.2,2.7,0.9,2.7,2.5c0,1.8-1.7,2.7-3.4,2.7c-1.5,0-3.1-0.7-3.5-2.2L81.9,14.4z"/>
	<path d="M89,14.4c0.2,0.7,0.8,1,1.5,1c0.5,0,1.2-0.2,1.2-0.9c0-0.6-0.8-0.8-1.3-0.9L90,13.6c-1.4-0.2-2.7-0.9-2.7-2.4
		c0-1.7,1.6-2.6,3.2-2.6c1.5,0,2.9,0.7,3.3,2.2l-2,0.4c-0.2-0.6-0.7-1-1.3-1c-0.5,0-1.1,0.2-1.1,0.8c0,0.6,0.9,0.8,1.3,0.8l0.4,0.1
		c1.4,0.2,2.7,0.9,2.7,2.5c0,1.8-1.7,2.7-3.4,2.7c-1.5,0-3.1-0.7-3.5-2.2L89,14.4z"/>
</g>
<text transform="matrix(1.0294 0 0 1 51.0629 22.6418)" class="st3 st4 st5">roadpress</text>
</svg>
