<?xml version="1.0" encoding="UTF-8"?>
<svg id="Calque_1" data-name="Calque 1" xmlns="http://www.w3.org/2000/svg" width="19.77" height="20" viewBox="0 0 19.77 20">
  <path d="m16.97,6.09l.42.14c1.81.59,1.85,3.13.06,3.78l-4.99,1.82c-.28.1-.5.32-.6.6l-1.91,5.26c-.64,1.76-3.12,1.75-3.76,0L1.12,3.68c-.58-1.6.98-3.15,2.58-2.55l1.39.52" style="fill: none; stroke: #000; stroke-linecap: round; stroke-linejoin: round; stroke-width: 2px;"/>
  <path d="m11.55.96c-.15-.61-1.01-.61-1.16,0l-.4,1.67c-.05.22-.22.39-.44.44l-1.67.4c-.61.15-.61,1.01,0,1.16l1.67.4c.22.05.39.22.44.44l.4,1.67c.15.61,1.01.61,1.16,0l.4-1.67c.05-.22.22-.39.44-.44l1.67-.4c.61-.15.61-1.01,0-1.16l-1.67-.4c-.22-.05-.39-.22-.44-.44l-.4-1.67Z" style="fill-rule: evenodd; stroke: #000; stroke-miterlimit: 10; stroke-width: .25px;"/>
</svg>