<?xml version="1.0" encoding="UTF-8"?>
<svg id="Calque_1" data-name="Calque 1" xmlns="http://www.w3.org/2000/svg" width="93.84" height="20" viewBox="0 0 93.84 20">
  <path d="m16.97,6.09l.42.14c1.81.59,1.85,3.13.06,3.78l-4.99,1.82c-.28.1-.5.32-.6.6l-1.91,5.26c-.64,1.76-3.12,1.75-3.76,0L1.12,3.68c-.58-1.6.98-3.15,2.58-2.55l1.39.52" style="fill: none; stroke: #fff; stroke-linecap: round; stroke-linejoin: round; stroke-width: 2px;"/>
  <path d="m11.55.96c-.15-.61-1.01-.61-1.16,0l-.4,1.67c-.05.22-.22.39-.44.44l-1.67.4c-.61.15-.61,1.01,0,1.16l1.67.4c.22.05.39.22.44.44l.4,1.67c.15.61,1.01.61,1.16,0l.4-1.67c.05-.22.22-.39.44-.44l1.67-.4c.61-.15.61-1.01,0-1.16l-1.67-.4c-.22-.05-.39-.22-.44-.44l-.4-1.67Z" style="fill: #fff; fill-rule: evenodd; stroke: #fff; stroke-miterlimit: 10; stroke-width: .25px;"/>
  <g>
    <path d="m25.66,8.76l.08,1.22c.41-.85,1.13-1.32,2.1-1.32.14,0,.3.01.44.03.14.03.28.06.39.11l-.24,2.1c-.24-.11-.47-.11-.72-.11-1.33,0-1.88.87-1.88,2.07v3.94h-2.19v-8.03h2.02Z" style="fill: #fff; stroke-width: 0px;"/>
    <path d="m33.06,8.54c2.46,0,4.29,1.79,4.29,4.23s-1.82,4.26-4.36,4.26-4.29-1.83-4.29-4.25,1.85-4.24,4.36-4.24Zm-2.12,4.24c0,1.17.77,2.33,2.08,2.33s2.08-1.13,2.08-2.33-.75-2.33-2.08-2.33-2.08,1.13-2.08,2.33Z" style="fill: #fff; stroke-width: 0px;"/>
    <path d="m37.93,12.83c0-2.19,1.49-4.29,3.93-4.29,1.04,0,1.97.43,2.55,1.28l.06-1.05h2.02v8.03h-2.02l-.06-1.17c-.58.9-1.6,1.4-2.68,1.4-2.33,0-3.81-2.04-3.81-4.2Zm4.33,2.28c1.3,0,2.08-1.13,2.08-2.33s-.75-2.33-2.08-2.33-2.08,1.13-2.08,2.33.77,2.33,2.08,2.33Z" style="fill: #fff; stroke-width: 0px;"/>
    <path d="m47.31,12.83c0-2.18,1.49-4.29,3.92-4.29,1,0,1.83.35,2.46,1.13v-4.21h2.19v11.35h-2.02l-.06-1.17c-.61.9-1.58,1.4-2.7,1.4-2.32,0-3.79-2.05-3.79-4.2Zm4.33,2.28c1.3,0,2.08-1.13,2.08-2.33s-.75-2.33-2.08-2.33-2.08,1.13-2.08,2.33.77,2.33,2.08,2.33Z" style="fill: #fff; stroke-width: 0px;"/>
    <path d="m59.03,8.76l.06,1.17c.58-.91,1.58-1.4,2.68-1.4,2.35,0,3.81,2.02,3.81,4.2s-1.5,4.29-3.93,4.29c-.97,0-1.85-.38-2.45-1.13v3.85h-2.19v-10.98h2.02Zm.14,4.02c0,1.17.77,2.33,2.08,2.33s2.08-1.13,2.08-2.33-.75-2.33-2.08-2.33-2.08,1.13-2.08,2.33Z" style="fill: #fff; stroke-width: 0px;"/>
    <path d="m68.41,8.76l.08,1.22c.41-.85,1.13-1.32,2.1-1.32.14,0,.3.01.44.03.14.03.28.06.39.11l-.24,2.1c-.24-.11-.47-.11-.72-.11-1.33,0-1.88.87-1.88,2.07v3.94h-2.19v-8.03h2.02Z" style="fill: #fff; stroke-width: 0px;"/>
    <path d="m75.57,8.54c2.52,0,4.04,1.81,4.04,4.24v.53h-5.94c.17,1.06.83,1.92,2.02,1.92.78,0,1.38-.36,1.79-1l1.96.61c-.6,1.45-2.21,2.19-3.76,2.19-2.49,0-4.23-1.83-4.23-4.26,0-2.28,1.65-4.23,4.12-4.23Zm-1.87,3.35h3.65c-.14-.94-.74-1.7-1.79-1.7s-1.68.76-1.87,1.7Z" style="fill: #fff; stroke-width: 0px;"/>
    <path d="m81.91,14.38c.24.67.83,1.02,1.54,1.02.55,0,1.22-.21,1.22-.85s-.8-.82-1.32-.9l-.44-.08c-1.38-.23-2.74-.9-2.74-2.43,0-1.72,1.55-2.6,3.2-2.6,1.47,0,2.92.68,3.28,2.19l-1.96.4c-.22-.59-.66-.97-1.33-.97-.5,0-1.11.24-1.11.81s.91.76,1.35.84l.44.08c1.4.24,2.74.91,2.74,2.46,0,1.78-1.66,2.69-3.35,2.69-1.5,0-3.06-.71-3.48-2.24l1.97-.41Z" style="fill: #fff; stroke-width: 0px;"/>
    <path d="m88.98,14.38c.24.67.83,1.02,1.54,1.02.55,0,1.22-.21,1.22-.85s-.8-.82-1.32-.9l-.44-.08c-1.38-.23-2.74-.9-2.74-2.43,0-1.72,1.55-2.6,3.2-2.6,1.47,0,2.92.68,3.28,2.19l-1.96.4c-.22-.59-.66-.97-1.33-.97-.5,0-1.11.24-1.11.81s.91.76,1.35.84l.44.08c1.4.24,2.74.91,2.74,2.46,0,1.78-1.66,2.69-3.35,2.69-1.5,0-3.06-.71-3.48-2.24l1.97-.41Z" style="fill: #fff; stroke-width: 0px;"/>
  </g>
</svg>